<mxfile host="app.diagrams.net" modified="2023-10-29T14:15:56.297Z" agent="Mozilla/5.0 (Macintosh; Intel Mac OS X 10_15_7) AppleWebKit/605.1.15 (KHTML, like Gecko) Version/17.0 Safari/605.1.15" etag="W_mQ_T2JlLWRwVmxyLDv" version="22.0.8" type="device">
  <diagram name="Page-1" id="4wsVqw2DCvwK5wkOLlbW">
    <mxGraphModel dx="2533" dy="924" grid="1" gridSize="10" guides="1" tooltips="1" connect="1" arrows="1" fold="1" page="1" pageScale="1" pageWidth="827" pageHeight="1169" math="0" shadow="0">
      <root>
        <mxCell id="0" />
        <mxCell id="1" parent="0" />
        <mxCell id="X6D9iNevbog___nyGTyk-3" value="" style="edgeStyle=orthogonalEdgeStyle;rounded=0;orthogonalLoop=1;jettySize=auto;html=1;" parent="1" source="X6D9iNevbog___nyGTyk-1" target="X6D9iNevbog___nyGTyk-2" edge="1">
          <mxGeometry relative="1" as="geometry" />
        </mxCell>
        <mxCell id="X6D9iNevbog___nyGTyk-1" value="start" style="ellipse;whiteSpace=wrap;html=1;" parent="1" vertex="1">
          <mxGeometry x="150" y="40" width="120" height="80" as="geometry" />
        </mxCell>
        <mxCell id="X6D9iNevbog___nyGTyk-5" value="" style="edgeStyle=orthogonalEdgeStyle;rounded=0;orthogonalLoop=1;jettySize=auto;html=1;" parent="1" source="X6D9iNevbog___nyGTyk-2" target="X6D9iNevbog___nyGTyk-4" edge="1">
          <mxGeometry relative="1" as="geometry" />
        </mxCell>
        <mxCell id="X6D9iNevbog___nyGTyk-2" value="&lt;p style=&quot;text-align: start; margin-top: 0px; margin-bottom: 0px; line-height: 14.4px;&quot;&gt;String&amp;nbsp;&lt;span style=&quot;line-height: 14.4px;&quot;&gt;namaObat&lt;/span&gt;&lt;span style=&quot;line-height: 14.4px;&quot;&gt;, member,&amp;nbsp;&lt;/span&gt;&lt;span style=&quot;line-height: 14.4px;&quot;&gt;lanjut&lt;/span&gt;&lt;span style=&quot;line-height: 14.4px;&quot;&gt;&amp;nbsp;;&lt;/span&gt;&lt;/p&gt;&lt;p style=&quot;text-align: start; margin-top: 0px; margin-bottom: 0px; line-height: 14.4px;&quot;&gt;&lt;span style=&quot;line-height: 14.4px;&quot;&gt;int&lt;/span&gt;&lt;span style=&quot;line-height: 14.4px;&quot;&gt;&amp;nbsp;&lt;/span&gt;&lt;span style=&quot;line-height: 14.4px;&quot;&gt;kuantitas&lt;/span&gt;&lt;span style=&quot;line-height: 14.4px;&quot;&gt;&amp;nbsp;;&lt;/span&gt;&lt;/p&gt;&lt;p style=&quot;text-align: start; margin-top: 0px; margin-bottom: 0px; line-height: 14.4px;&quot;&gt;&lt;span style=&quot;line-height: 14.4px;&quot;&gt;double&amp;nbsp;&lt;/span&gt;&lt;span style=&quot;line-height: 14.4px;&quot;&gt;hargaObat&lt;/span&gt;&lt;span style=&quot;line-height: 14.4px;&quot;&gt;, subtotal,&amp;nbsp;&lt;/span&gt;&lt;span style=&quot;line-height: 14.4px;&quot;&gt;uangDibayarkan&lt;/span&gt;&lt;span style=&quot;line-height: 14.4px;&quot;&gt;,&amp;nbsp;&lt;/span&gt;&lt;span style=&quot;line-height: 14.4px;&quot;&gt;kembalian&lt;/span&gt;&lt;span style=&quot;line-height: 14.4px;&quot;&gt;,&amp;nbsp;&lt;/span&gt;&lt;span style=&quot;line-height: 14.4px;&quot;&gt;totalHarga&lt;/span&gt;&lt;span style=&quot;line-height: 14.4px;&quot;&gt;&amp;nbsp;= 0;&lt;/span&gt;&lt;/p&gt;&lt;p style=&quot;text-align: start; margin-top: 0px; margin-bottom: 0px; line-height: 14.4px;&quot;&gt;&lt;span style=&quot;line-height: 14.4px;&quot;&gt;boolean&lt;/span&gt;&lt;span style=&quot;line-height: 14.4px;&quot;&gt;&amp;nbsp;&lt;/span&gt;&lt;span style=&quot;line-height: 14.4px;&quot;&gt;selesai&lt;/span&gt;&lt;span style=&quot;line-height: 14.4px;&quot;&gt;&amp;nbsp;= false&lt;/span&gt;&lt;/p&gt;" style="shape=hexagon;perimeter=hexagonPerimeter2;whiteSpace=wrap;html=1;fixedSize=1;" parent="1" vertex="1">
          <mxGeometry x="-5" y="200" width="430" height="110" as="geometry" />
        </mxCell>
        <mxCell id="X6D9iNevbog___nyGTyk-7" value="" style="edgeStyle=orthogonalEdgeStyle;rounded=0;orthogonalLoop=1;jettySize=auto;html=1;" parent="1" source="X6D9iNevbog___nyGTyk-4" target="X6D9iNevbog___nyGTyk-6" edge="1">
          <mxGeometry relative="1" as="geometry" />
        </mxCell>
        <mxCell id="X6D9iNevbog___nyGTyk-4" value="!selesai" style="rhombus;whiteSpace=wrap;html=1;" parent="1" vertex="1">
          <mxGeometry x="170" y="360" width="80" height="80" as="geometry" />
        </mxCell>
        <mxCell id="X6D9iNevbog___nyGTyk-9" value="" style="edgeStyle=orthogonalEdgeStyle;rounded=0;orthogonalLoop=1;jettySize=auto;html=1;" parent="1" source="X6D9iNevbog___nyGTyk-6" target="X6D9iNevbog___nyGTyk-8" edge="1">
          <mxGeometry relative="1" as="geometry" />
        </mxCell>
        <mxCell id="X6D9iNevbog___nyGTyk-6" value="input nama,kuantitas,hargaObat" style="shape=parallelogram;perimeter=parallelogramPerimeter;whiteSpace=wrap;html=1;fixedSize=1;" parent="1" vertex="1">
          <mxGeometry x="125" y="520" width="170" height="90" as="geometry" />
        </mxCell>
        <mxCell id="X6D9iNevbog___nyGTyk-11" value="" style="edgeStyle=orthogonalEdgeStyle;rounded=0;orthogonalLoop=1;jettySize=auto;html=1;" parent="1" source="X6D9iNevbog___nyGTyk-8" target="X6D9iNevbog___nyGTyk-10" edge="1">
          <mxGeometry relative="1" as="geometry" />
        </mxCell>
        <mxCell id="X6D9iNevbog___nyGTyk-8" value="subtotal = kuantitas * hargaObat&lt;br&gt;&amp;nbsp;+= subtotal" style="whiteSpace=wrap;html=1;" parent="1" vertex="1">
          <mxGeometry x="120" y="670" width="180" height="60" as="geometry" />
        </mxCell>
        <mxCell id="X6D9iNevbog___nyGTyk-13" value="" style="edgeStyle=orthogonalEdgeStyle;rounded=0;orthogonalLoop=1;jettySize=auto;html=1;" parent="1" source="X6D9iNevbog___nyGTyk-10" target="X6D9iNevbog___nyGTyk-12" edge="1">
          <mxGeometry relative="1" as="geometry" />
        </mxCell>
        <mxCell id="X6D9iNevbog___nyGTyk-10" value="print(subtotal)" style="shape=parallelogram;perimeter=parallelogramPerimeter;whiteSpace=wrap;html=1;fixedSize=1;" parent="1" vertex="1">
          <mxGeometry x="150" y="810" width="120" height="60" as="geometry" />
        </mxCell>
        <mxCell id="X6D9iNevbog___nyGTyk-15" value="" style="edgeStyle=orthogonalEdgeStyle;rounded=0;orthogonalLoop=1;jettySize=auto;html=1;" parent="1" source="X6D9iNevbog___nyGTyk-12" target="X6D9iNevbog___nyGTyk-14" edge="1">
          <mxGeometry relative="1" as="geometry" />
        </mxCell>
        <mxCell id="X6D9iNevbog___nyGTyk-12" value="input(apakah ingin memasukkan data lagi?(ya/tidak)" style="shape=parallelogram;perimeter=parallelogramPerimeter;whiteSpace=wrap;html=1;fixedSize=1;" parent="1" vertex="1">
          <mxGeometry x="130" y="950" width="160" height="60" as="geometry" />
        </mxCell>
        <mxCell id="X6D9iNevbog___nyGTyk-17" value="" style="edgeStyle=orthogonalEdgeStyle;rounded=0;orthogonalLoop=1;jettySize=auto;html=1;" parent="1" source="X6D9iNevbog___nyGTyk-14" target="X6D9iNevbog___nyGTyk-16" edge="1">
          <mxGeometry relative="1" as="geometry" />
        </mxCell>
        <mxCell id="X6D9iNevbog___nyGTyk-66" value="true" style="edgeLabel;html=1;align=center;verticalAlign=middle;resizable=0;points=[];" parent="X6D9iNevbog___nyGTyk-17" vertex="1" connectable="0">
          <mxGeometry x="-0.1456" y="2" relative="1" as="geometry">
            <mxPoint as="offset" />
          </mxGeometry>
        </mxCell>
        <mxCell id="X6D9iNevbog___nyGTyk-40" style="edgeStyle=orthogonalEdgeStyle;rounded=0;orthogonalLoop=1;jettySize=auto;html=1;entryX=1;entryY=0.5;entryDx=0;entryDy=0;" parent="1" source="X6D9iNevbog___nyGTyk-14" target="X6D9iNevbog___nyGTyk-4" edge="1">
          <mxGeometry relative="1" as="geometry">
            <Array as="points">
              <mxPoint x="370" y="1120" />
              <mxPoint x="370" y="400" />
            </Array>
          </mxGeometry>
        </mxCell>
        <mxCell id="X6D9iNevbog___nyGTyk-67" value="false" style="edgeLabel;html=1;align=center;verticalAlign=middle;resizable=0;points=[];" parent="X6D9iNevbog___nyGTyk-40" vertex="1" connectable="0">
          <mxGeometry x="-0.0381" y="-1" relative="1" as="geometry">
            <mxPoint as="offset" />
          </mxGeometry>
        </mxCell>
        <mxCell id="X6D9iNevbog___nyGTyk-14" value="tidak" style="rhombus;whiteSpace=wrap;html=1;" parent="1" vertex="1">
          <mxGeometry x="170" y="1080" width="80" height="80" as="geometry" />
        </mxCell>
        <mxCell id="X6D9iNevbog___nyGTyk-19" value="" style="edgeStyle=orthogonalEdgeStyle;rounded=0;orthogonalLoop=1;jettySize=auto;html=1;" parent="1" source="X6D9iNevbog___nyGTyk-16" target="X6D9iNevbog___nyGTyk-18" edge="1">
          <mxGeometry relative="1" as="geometry" />
        </mxCell>
        <mxCell id="X6D9iNevbog___nyGTyk-16" value="input(apakah mempunyai member?(ya/tidak)" style="shape=parallelogram;perimeter=parallelogramPerimeter;whiteSpace=wrap;html=1;fixedSize=1;" parent="1" vertex="1">
          <mxGeometry x="-70" y="1090" width="180" height="60" as="geometry" />
        </mxCell>
        <mxCell id="X6D9iNevbog___nyGTyk-21" value="" style="edgeStyle=orthogonalEdgeStyle;rounded=0;orthogonalLoop=1;jettySize=auto;html=1;" parent="1" source="X6D9iNevbog___nyGTyk-18" target="X6D9iNevbog___nyGTyk-20" edge="1">
          <mxGeometry relative="1" as="geometry" />
        </mxCell>
        <mxCell id="X6D9iNevbog___nyGTyk-68" value="false" style="edgeLabel;html=1;align=center;verticalAlign=middle;resizable=0;points=[];" parent="X6D9iNevbog___nyGTyk-21" vertex="1" connectable="0">
          <mxGeometry x="-0.1619" y="1" relative="1" as="geometry">
            <mxPoint as="offset" />
          </mxGeometry>
        </mxCell>
        <mxCell id="X6D9iNevbog___nyGTyk-23" value="" style="edgeStyle=orthogonalEdgeStyle;rounded=0;orthogonalLoop=1;jettySize=auto;html=1;" parent="1" source="X6D9iNevbog___nyGTyk-18" target="X6D9iNevbog___nyGTyk-22" edge="1">
          <mxGeometry relative="1" as="geometry" />
        </mxCell>
        <mxCell id="X6D9iNevbog___nyGTyk-69" value="true" style="edgeLabel;html=1;align=center;verticalAlign=middle;resizable=0;points=[];" parent="X6D9iNevbog___nyGTyk-23" vertex="1" connectable="0">
          <mxGeometry x="-0.1524" y="1" relative="1" as="geometry">
            <mxPoint as="offset" />
          </mxGeometry>
        </mxCell>
        <mxCell id="X6D9iNevbog___nyGTyk-18" value="ya" style="rhombus;whiteSpace=wrap;html=1;" parent="1" vertex="1">
          <mxGeometry x="-20" y="1220" width="80" height="80" as="geometry" />
        </mxCell>
        <mxCell id="X6D9iNevbog___nyGTyk-25" value="" style="edgeStyle=orthogonalEdgeStyle;rounded=0;orthogonalLoop=1;jettySize=auto;html=1;" parent="1" source="X6D9iNevbog___nyGTyk-20" target="X6D9iNevbog___nyGTyk-24" edge="1">
          <mxGeometry relative="1" as="geometry" />
        </mxCell>
        <mxCell id="X6D9iNevbog___nyGTyk-74" value="false" style="edgeLabel;html=1;align=center;verticalAlign=middle;resizable=0;points=[];" parent="X6D9iNevbog___nyGTyk-25" vertex="1" connectable="0">
          <mxGeometry x="-0.0365" y="2" relative="1" as="geometry">
            <mxPoint as="offset" />
          </mxGeometry>
        </mxCell>
        <mxCell id="X6D9iNevbog___nyGTyk-27" value="" style="edgeStyle=orthogonalEdgeStyle;rounded=0;orthogonalLoop=1;jettySize=auto;html=1;" parent="1" source="X6D9iNevbog___nyGTyk-20" target="X6D9iNevbog___nyGTyk-26" edge="1">
          <mxGeometry relative="1" as="geometry" />
        </mxCell>
        <mxCell id="X6D9iNevbog___nyGTyk-76" value="true" style="edgeLabel;html=1;align=center;verticalAlign=middle;resizable=0;points=[];" parent="X6D9iNevbog___nyGTyk-27" vertex="1" connectable="0">
          <mxGeometry x="-0.1175" y="2" relative="1" as="geometry">
            <mxPoint as="offset" />
          </mxGeometry>
        </mxCell>
        <mxCell id="X6D9iNevbog___nyGTyk-20" value="totalHarga &amp;gt;= 50000 &amp;amp;&amp;amp; totalHarga &amp;lt; 150000" style="rhombus;whiteSpace=wrap;html=1;" parent="1" vertex="1">
          <mxGeometry x="-210" y="1230" width="160" height="160" as="geometry" />
        </mxCell>
        <mxCell id="X6D9iNevbog___nyGTyk-33" value="" style="edgeStyle=orthogonalEdgeStyle;rounded=0;orthogonalLoop=1;jettySize=auto;html=1;" parent="1" source="X6D9iNevbog___nyGTyk-22" target="X6D9iNevbog___nyGTyk-32" edge="1">
          <mxGeometry relative="1" as="geometry" />
        </mxCell>
        <mxCell id="X6D9iNevbog___nyGTyk-70" value="true" style="edgeLabel;html=1;align=center;verticalAlign=middle;resizable=0;points=[];" parent="X6D9iNevbog___nyGTyk-33" vertex="1" connectable="0">
          <mxGeometry x="-0.2465" y="3" relative="1" as="geometry">
            <mxPoint as="offset" />
          </mxGeometry>
        </mxCell>
        <mxCell id="X6D9iNevbog___nyGTyk-35" value="" style="edgeStyle=orthogonalEdgeStyle;rounded=0;orthogonalLoop=1;jettySize=auto;html=1;" parent="1" source="X6D9iNevbog___nyGTyk-22" target="X6D9iNevbog___nyGTyk-34" edge="1">
          <mxGeometry relative="1" as="geometry" />
        </mxCell>
        <mxCell id="X6D9iNevbog___nyGTyk-71" value="false" style="edgeLabel;html=1;align=center;verticalAlign=middle;resizable=0;points=[];" parent="X6D9iNevbog___nyGTyk-35" vertex="1" connectable="0">
          <mxGeometry x="-0.132" y="4" relative="1" as="geometry">
            <mxPoint as="offset" />
          </mxGeometry>
        </mxCell>
        <mxCell id="X6D9iNevbog___nyGTyk-22" value="totalHarga &amp;lt; 50000" style="rhombus;whiteSpace=wrap;html=1;" parent="1" vertex="1">
          <mxGeometry x="110" y="1265" width="100" height="90" as="geometry" />
        </mxCell>
        <mxCell id="X6D9iNevbog___nyGTyk-29" value="true" style="edgeStyle=orthogonalEdgeStyle;rounded=0;orthogonalLoop=1;jettySize=auto;html=1;" parent="1" source="X6D9iNevbog___nyGTyk-24" target="X6D9iNevbog___nyGTyk-28" edge="1">
          <mxGeometry relative="1" as="geometry" />
        </mxCell>
        <mxCell id="X6D9iNevbog___nyGTyk-31" value="" style="edgeStyle=orthogonalEdgeStyle;rounded=0;orthogonalLoop=1;jettySize=auto;html=1;" parent="1" source="X6D9iNevbog___nyGTyk-24" target="X6D9iNevbog___nyGTyk-30" edge="1">
          <mxGeometry relative="1" as="geometry" />
        </mxCell>
        <mxCell id="X6D9iNevbog___nyGTyk-75" value="false" style="edgeLabel;html=1;align=center;verticalAlign=middle;resizable=0;points=[];" parent="X6D9iNevbog___nyGTyk-31" vertex="1" connectable="0">
          <mxGeometry x="-0.3485" relative="1" as="geometry">
            <mxPoint as="offset" />
          </mxGeometry>
        </mxCell>
        <mxCell id="X6D9iNevbog___nyGTyk-24" value="totalHarga &amp;gt;= 150000" style="rhombus;whiteSpace=wrap;html=1;" parent="1" vertex="1">
          <mxGeometry x="-320" y="1360" width="80" height="80" as="geometry" />
        </mxCell>
        <mxCell id="X6D9iNevbog___nyGTyk-48" style="edgeStyle=orthogonalEdgeStyle;rounded=0;orthogonalLoop=1;jettySize=auto;html=1;" parent="1" source="X6D9iNevbog___nyGTyk-26" edge="1">
          <mxGeometry relative="1" as="geometry">
            <mxPoint x="-130" y="1740" as="targetPoint" />
          </mxGeometry>
        </mxCell>
        <mxCell id="X6D9iNevbog___nyGTyk-26" value="totalHarga -= 5000" style="whiteSpace=wrap;html=1;" parent="1" vertex="1">
          <mxGeometry x="-190" y="1480" width="120" height="60" as="geometry" />
        </mxCell>
        <mxCell id="X6D9iNevbog___nyGTyk-47" style="edgeStyle=orthogonalEdgeStyle;rounded=0;orthogonalLoop=1;jettySize=auto;html=1;" parent="1" source="X6D9iNevbog___nyGTyk-28" edge="1">
          <mxGeometry relative="1" as="geometry">
            <mxPoint x="-280" y="1740" as="targetPoint" />
          </mxGeometry>
        </mxCell>
        <mxCell id="X6D9iNevbog___nyGTyk-28" value="totalHarga -= 10000" style="whiteSpace=wrap;html=1;" parent="1" vertex="1">
          <mxGeometry x="-340" y="1560" width="120" height="60" as="geometry" />
        </mxCell>
        <mxCell id="X6D9iNevbog___nyGTyk-46" value="" style="edgeStyle=orthogonalEdgeStyle;rounded=0;orthogonalLoop=1;jettySize=auto;html=1;" parent="1" source="X6D9iNevbog___nyGTyk-30" target="X6D9iNevbog___nyGTyk-45" edge="1">
          <mxGeometry relative="1" as="geometry">
            <Array as="points">
              <mxPoint x="-450" y="1740" />
            </Array>
          </mxGeometry>
        </mxCell>
        <mxCell id="X6D9iNevbog___nyGTyk-30" value="default" style="whiteSpace=wrap;html=1;" parent="1" vertex="1">
          <mxGeometry x="-510" y="1565" width="120" height="60" as="geometry" />
        </mxCell>
        <mxCell id="X6D9iNevbog___nyGTyk-54" style="edgeStyle=orthogonalEdgeStyle;rounded=0;orthogonalLoop=1;jettySize=auto;html=1;" parent="1" source="X6D9iNevbog___nyGTyk-32" edge="1">
          <mxGeometry relative="1" as="geometry">
            <mxPoint x="160" y="1730" as="targetPoint" />
          </mxGeometry>
        </mxCell>
        <mxCell id="X6D9iNevbog___nyGTyk-32" value="totalHarga -= 5000" style="whiteSpace=wrap;html=1;" parent="1" vertex="1">
          <mxGeometry x="100" y="1480" width="120" height="60" as="geometry" />
        </mxCell>
        <mxCell id="X6D9iNevbog___nyGTyk-37" value="" style="edgeStyle=orthogonalEdgeStyle;rounded=0;orthogonalLoop=1;jettySize=auto;html=1;" parent="1" source="X6D9iNevbog___nyGTyk-34" target="X6D9iNevbog___nyGTyk-36" edge="1">
          <mxGeometry relative="1" as="geometry" />
        </mxCell>
        <mxCell id="X6D9iNevbog___nyGTyk-72" value="true" style="edgeLabel;html=1;align=center;verticalAlign=middle;resizable=0;points=[];" parent="X6D9iNevbog___nyGTyk-37" vertex="1" connectable="0">
          <mxGeometry x="-0.1619" y="1" relative="1" as="geometry">
            <mxPoint as="offset" />
          </mxGeometry>
        </mxCell>
        <mxCell id="X6D9iNevbog___nyGTyk-39" value="" style="edgeStyle=orthogonalEdgeStyle;rounded=0;orthogonalLoop=1;jettySize=auto;html=1;" parent="1" source="X6D9iNevbog___nyGTyk-34" target="X6D9iNevbog___nyGTyk-38" edge="1">
          <mxGeometry relative="1" as="geometry" />
        </mxCell>
        <mxCell id="X6D9iNevbog___nyGTyk-73" value="false" style="edgeLabel;html=1;align=center;verticalAlign=middle;resizable=0;points=[];" parent="X6D9iNevbog___nyGTyk-39" vertex="1" connectable="0">
          <mxGeometry x="-0.4187" y="4" relative="1" as="geometry">
            <mxPoint as="offset" />
          </mxGeometry>
        </mxCell>
        <mxCell id="X6D9iNevbog___nyGTyk-34" value="totalHarga &amp;gt;= 50000 &amp;amp;&amp;amp; totalHarga &amp;lt; 150000" style="rhombus;whiteSpace=wrap;html=1;" parent="1" vertex="1">
          <mxGeometry x="330" y="1320" width="180" height="160" as="geometry" />
        </mxCell>
        <mxCell id="X6D9iNevbog___nyGTyk-53" style="edgeStyle=orthogonalEdgeStyle;rounded=0;orthogonalLoop=1;jettySize=auto;html=1;" parent="1" source="X6D9iNevbog___nyGTyk-36" edge="1">
          <mxGeometry relative="1" as="geometry">
            <mxPoint x="420" y="1730" as="targetPoint" />
          </mxGeometry>
        </mxCell>
        <mxCell id="X6D9iNevbog___nyGTyk-36" value="totalHarga -= 10000" style="whiteSpace=wrap;html=1;" parent="1" vertex="1">
          <mxGeometry x="360" y="1560" width="120" height="70" as="geometry" />
        </mxCell>
        <mxCell id="X6D9iNevbog___nyGTyk-49" style="edgeStyle=orthogonalEdgeStyle;rounded=0;orthogonalLoop=1;jettySize=auto;html=1;entryX=1;entryY=0.5;entryDx=0;entryDy=0;" parent="1" source="X6D9iNevbog___nyGTyk-38" target="X6D9iNevbog___nyGTyk-45" edge="1">
          <mxGeometry relative="1" as="geometry">
            <Array as="points">
              <mxPoint x="650" y="1735" />
            </Array>
          </mxGeometry>
        </mxCell>
        <mxCell id="X6D9iNevbog___nyGTyk-38" value="default" style="whiteSpace=wrap;html=1;" parent="1" vertex="1">
          <mxGeometry x="590" y="1570" width="120" height="60" as="geometry" />
        </mxCell>
        <mxCell id="X6D9iNevbog___nyGTyk-56" value="" style="edgeStyle=orthogonalEdgeStyle;rounded=0;orthogonalLoop=1;jettySize=auto;html=1;" parent="1" source="X6D9iNevbog___nyGTyk-45" target="X6D9iNevbog___nyGTyk-55" edge="1">
          <mxGeometry relative="1" as="geometry" />
        </mxCell>
        <mxCell id="X6D9iNevbog___nyGTyk-45" value="" style="ellipse;whiteSpace=wrap;html=1;" parent="1" vertex="1">
          <mxGeometry x="-20" y="1720" width="60" height="55" as="geometry" />
        </mxCell>
        <mxCell id="X6D9iNevbog___nyGTyk-58" value="" style="edgeStyle=orthogonalEdgeStyle;rounded=0;orthogonalLoop=1;jettySize=auto;html=1;" parent="1" source="X6D9iNevbog___nyGTyk-55" target="X6D9iNevbog___nyGTyk-57" edge="1">
          <mxGeometry relative="1" as="geometry" />
        </mxCell>
        <mxCell id="X6D9iNevbog___nyGTyk-55" value="print totalHarga" style="shape=parallelogram;perimeter=parallelogramPerimeter;whiteSpace=wrap;html=1;fixedSize=1;" parent="1" vertex="1">
          <mxGeometry x="-50" y="1852.5" width="120" height="60" as="geometry" />
        </mxCell>
        <mxCell id="X6D9iNevbog___nyGTyk-60" value="" style="edgeStyle=orthogonalEdgeStyle;rounded=0;orthogonalLoop=1;jettySize=auto;html=1;" parent="1" source="X6D9iNevbog___nyGTyk-57" target="X6D9iNevbog___nyGTyk-59" edge="1">
          <mxGeometry relative="1" as="geometry" />
        </mxCell>
        <mxCell id="X6D9iNevbog___nyGTyk-57" value="input (uang yang dibayarkan)" style="shape=parallelogram;perimeter=parallelogramPerimeter;whiteSpace=wrap;html=1;fixedSize=1;" parent="1" vertex="1">
          <mxGeometry x="-60" y="1990" width="140" height="67.5" as="geometry" />
        </mxCell>
        <mxCell id="X6D9iNevbog___nyGTyk-62" value="" style="edgeStyle=orthogonalEdgeStyle;rounded=0;orthogonalLoop=1;jettySize=auto;html=1;" parent="1" source="X6D9iNevbog___nyGTyk-59" target="X6D9iNevbog___nyGTyk-61" edge="1">
          <mxGeometry relative="1" as="geometry" />
        </mxCell>
        <mxCell id="X6D9iNevbog___nyGTyk-59" value="kembalian = uangDibayarkan - totalHarga" style="whiteSpace=wrap;html=1;" parent="1" vertex="1">
          <mxGeometry x="-50" y="2132.5" width="120" height="60" as="geometry" />
        </mxCell>
        <mxCell id="X6D9iNevbog___nyGTyk-64" value="" style="edgeStyle=orthogonalEdgeStyle;rounded=0;orthogonalLoop=1;jettySize=auto;html=1;" parent="1" source="X6D9iNevbog___nyGTyk-61" target="X6D9iNevbog___nyGTyk-63" edge="1">
          <mxGeometry relative="1" as="geometry" />
        </mxCell>
        <mxCell id="X6D9iNevbog___nyGTyk-61" value="print kembalian" style="shape=parallelogram;perimeter=parallelogramPerimeter;whiteSpace=wrap;html=1;fixedSize=1;" parent="1" vertex="1">
          <mxGeometry x="-50" y="2272.5" width="120" height="60" as="geometry" />
        </mxCell>
        <mxCell id="X6D9iNevbog___nyGTyk-63" value="end" style="ellipse;whiteSpace=wrap;html=1;" parent="1" vertex="1">
          <mxGeometry x="-45" y="2402.5" width="110" height="80" as="geometry" />
        </mxCell>
      </root>
    </mxGraphModel>
  </diagram>
</mxfile>
